<?xml version="1.0" encoding="UTF-8" standalone="no"?>
<svg width="100" height="100" viewBox="0 0 100 100" fill="none" xmlns="http://www.w3.org/2000/svg">
<circle cx="50" cy="50" r="50" fill="#B5315E"/>
<path d="M50.0538 22L46.157 29.9642C43.3725 35.654 39.6405 40.8287 35.1208 45.267L34.6088 45.7505C31.706 48.5686 30.0475 52.4283 30.0009 56.4738V56.9858C29.924 64.9077 34.6447 72.0898 41.9473 75.1613L42.6868 75.4742C47.4764 77.5086 52.8871 77.5086 57.6767 75.4742H57.8473C65.2046 72.2777 69.925 64.9783 69.8222 56.9573V44.6128C67.3704 50.212 62.9177 54.695 57.3354 57.1849C57.3354 57.1849 57.3354 57.1849 57.1647 57.1849C56.994 57.1849 55.003 58.0098 54.1497 57.1849C53.3875 56.4137 53.3145 55.1973 53.979 54.3405L54.1781 54.1983H54.3203C60.8503 49.2348 62.3727 40.0382 57.7905 33.2353C54.0928 27.6034 50.0538 22 50.0538 22Z" fill="#ffe4f8"/>
</svg>