<?xml version="1.0" encoding="UTF-8" standalone="no"?>
<svg width="100" height="100" viewBox="0 0 100 100" fill="none" xmlns="http://www.w3.org/2000/svg">
<circle cx="50" cy="50" r="50" fill="#B5315E"/>
<path fill-rule="evenodd" clip-rule="evenodd" d="M57.6204 24.4979L73.1767 35.9883C76.1747 38.1581 77.9586 41.6273 77.9791 45.328V66.1287C77.7864 72.7985 72.2463 78.0623 65.5753 77.9137H34.4332C27.7509 78.0787 22.1927 72.8103 22 66.1287V45.328C22.0205 41.6273 23.8044 38.1581 26.8024 35.9883L42.3587 24.4979C46.9008 21.1674 53.0783 21.1674 57.6204 24.4979ZM36.7313 65.451H63.2477C64.4681 65.451 65.4574 64.4617 65.4574 63.2413C65.4574 62.0209 64.4681 61.0316 63.2477 61.0316H36.7313C35.511 61.0316 34.5216 62.0209 34.5216 63.2413C34.5216 64.4617 35.511 65.451 36.7313 65.451Z" fill="#ffe4f8"/>
</svg>