<?xml version="1.0" encoding="UTF-8" standalone="no"?>
<svg width="100" height="100" viewBox="0 0 100 100" fill="none" xmlns="http://www.w3.org/2000/svg">
<circle cx="50" cy="50" r="50" fill="#B5315E"/>
<path d="M73 32.4464C72.9007 29.4357 71.324 26.6674 68.7851 25.0462C65.35 22.8111 61.0448 22.3793 57.2343 23.8879L42.5947 29.5828C38.8772 30.8931 36.3298 34.332 36.1597 38.2701V61.8221C34.8731 61.1358 33.4353 60.7818 31.977 60.7925C28.3433 60.7925 25.068 62.9831 23.6805 66.3415C22.293 69.6998 23.0669 73.5634 25.6409 76.1282C28.2149 78.693 32.0813 79.4531 35.4346 78.0535C38.788 76.6539 40.9668 73.3708 40.9538 69.7371C40.9676 69.5658 40.9676 69.3936 40.9538 69.2223V38.2701C41.1415 36.2974 42.501 34.6329 44.3965 34.0551L59.0039 28.2637C61.3411 27.3557 63.9713 27.6187 66.0824 28.9715C67.3198 29.7196 68.1038 31.0343 68.1738 32.4786V55.8697C66.8919 55.1635 65.4545 54.7876 63.991 54.7758C59.0851 54.7468 55.0646 58.6618 54.9631 63.5668C54.8617 68.4718 58.7169 72.5497 63.6199 72.7236C68.5228 72.8974 72.6572 69.1029 72.9035 64.203C72.9185 64.0532 72.9185 63.9023 72.9035 63.7526L73 32.4464Z" fill="#ffe4f8"/>
</svg>