<?xml version="1.0" encoding="UTF-8" standalone="no"?>
<svg width="100" height="100" viewBox="0 0 100 100" fill="none" xmlns="http://www.w3.org/2000/svg">
<circle cx="50" cy="50" r="50" fill="#B5315E"/>
<path fill-rule="evenodd" clip-rule="evenodd" d="M74.8808 59.0546L76.9635 73.524C77.1309 74.7429 76.7162 75.9695 75.8436 76.8367C74.971 77.7039 73.7418 78.111 72.524 77.9361L58.0546 75.8534C56.0933 75.583 54.2743 74.6783 52.8752 73.2774L26.1834 46.5583C22.6215 43.118 21.1929 38.0235 22.4469 33.2328C23.7009 28.4422 27.4422 24.7009 32.2328 23.4469C37.0235 22.1929 42.118 23.6215 45.5583 27.1834L72.3048 53.8752C73.7057 55.2743 74.6104 57.0933 74.8808 59.0546ZM45.8597 49.7646C46.6621 50.566 47.9621 50.566 48.7646 49.7646C49.566 48.9621 49.566 47.6621 48.7646 46.8597L37.2274 35.3225C36.4175 34.5679 35.1556 34.5902 34.3729 35.3729C33.5902 36.1556 33.5679 37.4175 34.3225 38.2274L45.8597 49.7646Z" fill="#ffe4f8"/>
</svg>